<svg width="63" height="63" version="1.1" viewBox="0 0 63 63" xmlns="http://www.w3.org/2000/svg">
    <symbol id="icon-search" viewBox="0 0 60 60">
        <title>Search magnifying glass</title>
        <path d="M68.76,61.15,51.5,45.87a5.92,5.92,0,0,0-4-1.75,21,21,0,1,0-2.35,2.35,5.92,5.92,0,0,0,1.75,4L62.16,67.76a4.7,4.7,0,1,0,6.61-6.61ZM31.5,46.5a16,16,0,1,1,16-16A16,16,0,0,1,31.5,46.5Z"
        transform="translate(-10.5 -9.5)" />
    </symbol>
    <symbol id="icon-arrow-right" viewBox="0 0  33.37 27.72">
        <title>Arrow pointing right</title>
        <polygon points="33.37 13.86 19.51 0 13.61 0 25.34 11.63 0 11.63 0 16.06 25.34 16.06 13.61 27.72 19.51 27.72 33.37 13.86"/>
    </symbol>
    <symbol id="icon-arrow-left" viewBox="0 0  33.37 27.72">
        <title>Arrow pointing left</title>
        <polygon points="0 13.86 13.86 27.72 19.76 27.72 8.03 16.09 33.37 16.09 33.37 11.66 8.03 11.66 19.76 0 13.86 0 0 13.86"/>
    </symbol>
    <symbol id="icon-chevron-right" viewBox="0 0 20 20">
       <title>Chevron right</title>
       <path d="M9.163 4.516c0.418 0.408 4.502 4.695 4.502 4.695 0.223 0.219 0.335 0.504 0.335 0.789s-0.112 0.57-0.335 0.787c0 0-4.084 4.289-4.502 4.695-0.418 0.408-1.17 0.436-1.615 0-0.446-0.434-0.481-1.041 0-1.574l3.747-3.908-3.747-3.908c-0.481-0.533-0.446-1.141 0-1.576s1.197-0.409 1.615 0z"></path>
    </symbol>
    <symbol id="icon-chevron-left" viewBox="0 0 20 20">
       <title>Chevron left</title>
       <path d="M12.452 4.516c0.446 0.436 0.481 1.043 0 1.576l-3.747 3.908 3.747 3.908c0.481 0.533 0.446 1.141 0 1.574-0.445 0.436-1.197 0.408-1.615 0-0.418-0.406-4.502-4.695-4.502-4.695-0.223-0.217-0.335-0.502-0.335-0.787s0.112-0.57 0.335-0.789c0 0 4.084-4.287 4.502-4.695s1.17-0.436 1.615 0z"></path>
    </symbol>
    <symbol id="icon-chevron-down" viewBox="0 0 20 20">
       <title>Chevron down</title>
       <path d="M4.516 7.548c0.436-0.446 1.043-0.481 1.576 0l3.908 3.747 3.908-3.747c0.533-0.481 1.141-0.446 1.574 0 0.436 0.445 0.408 1.197 0 1.615-0.406 0.418-4.695 4.502-4.695 4.502-0.217 0.223-0.502 0.335-0.787 0.335s-0.57-0.112-0.789-0.335c0 0-4.287-4.084-4.695-4.502s-0.436-1.17 0-1.615z"></path>
    </symbol>
    <symbol id="icon-chevron-up" viewBox="0 0 20 20">
       <title>Chevron up</title>
       <path d="M15.484 12.452c-0.436 0.446-1.043 0.481-1.576 0l-3.908-3.747-3.908 3.747c-0.533 0.481-1.141 0.446-1.574 0-0.436-0.445-0.408-1.197 0-1.615 0.406-0.418 4.695-4.502 4.695-4.502 0.217-0.223 0.502-0.335 0.787-0.335s0.57 0.112 0.789 0.335c0 0 4.287 4.084 4.695 4.502s0.436 1.17 0 1.615z"></path>
    </symbol>
    <symbol id="icon-facebook" viewBox="0 0 1792 1792">
        <title>Facebook Logo</title>
        <path d="M1343 12v264h-157q-86 0-116 36t-30 108v189h293l-39 296h-254v759h-306v-759h-255v-296h255v-218q0-186 104-288.5t277-102.5q147 0 228 12z"/>
    </symbol>
    <symbol id="icon-twitter" viewBox="0 0 1792 1792">
        <title>Twitter Logo</title>
        <path d="M1684 408q-67 98-162 167 1 14 1 42 0 130-38 259.5t-115.5 248.5-184.5 210.5-258 146-323 54.5q-271 0-496-145 35 4 78 4 225 0 401-138-105-2-188-64.5t-114-159.5q33 5 61 5 43 0 85-11-112-23-185.5-111.5t-73.5-205.5v-4q68 38 146 41-66-44-105-115t-39-154q0-88 44-163 121 149 294.5 238.5t371.5 99.5q-8-38-8-74 0-134 94.5-228.5t228.5-94.5q140 0 236 102 109-21 205-78-37 115-142 178 93-10 186-50z"/>
    </symbol>
    <symbol id="icon-linkedin" viewBox="0 0 1792 1792">
        <title>Linkedin Logo</title>
        <path d="M477 625v991h-330v-991h330zm21-306q1 73-50.5 122t-135.5 49h-2q-82 0-132-49t-50-122q0-74 51.5-122.5t134.5-48.5 133 48.5 51 122.5zm1166 729v568h-329v-530q0-105-40.5-164.5t-126.5-59.5q-63 0-105.5 34.5t-63.5 85.5q-11 30-11 81v553h-329q2-399 2-647t-1-296l-1-48h329v144h-2q20-32 41-56t56.5-52 87-43.5 114.5-15.5q171 0 275 113.5t104 332.5z"/>
    </symbol>
    <symbol id="icon-rss" viewBox="0 0 1792 1792">
        <title>RSS Logo</title>
        <path d="M576 1344q0 80-56 136t-136 56-136-56-56-136 56-136 136-56 136 56 56 136zm512 123q2 28-17 48-18 21-47 21h-135q-25 0-43-16.5t-20-41.5q-22-229-184.5-391.5t-391.5-184.5q-25-2-41.5-20t-16.5-43v-135q0-29 21-47 17-17 43-17h5q160 13 306 80.5t259 181.5q114 113 181.5 259t80.5 306zm512 2q2 27-18 47-18 20-46 20h-143q-26 0-44.5-17.5t-19.5-42.5q-12-215-101-408.5t-231.5-336-336-231.5-408.5-102q-25-1-42.5-19.5t-17.5-43.5v-143q0-28 20-46 18-18 44-18h3q262 13 501.5 120t425.5 294q187 186 294 425.5t120 501.5z"/>
    </symbol>
    <symbol id="icon-phone" viewBox="0 0 16 20">
        <title>Phone Icon</title>
        <path d="M8.967,14.45c0.366,0.336,0.732,0.397,1.098,0.183l3.066,5.216c-0.428,0.275-1.594,0.16-3.5-0.343
        c-1.907-0.503-4.02-2.753-6.337-6.749c-2.166-3.782-3.013-6.573-2.54-8.374c0.473-1.8,0.922-2.852,1.35-3.157l3.157,5.354
        c-0.366,0.214-0.503,0.557-0.412,1.03C4.941,8.082,5.108,8.563,5.353,9.05c0,0.031,0.732,1.281,2.196,3.752
        C8.128,13.565,8.601,14.114,8.967,14.45z M7.183,5.481l-1.51,0.869L2.516,0.997L3.98,0.128c0.153-0.122,0.32-0.16,0.503-0.114
        s0.32,0.16,0.412,0.343L7.412,4.52C7.503,4.703,7.526,4.879,7.48,5.047C7.434,5.214,7.335,5.36,7.183,5.481z M15.282,17.836
        c0.092,0.153,0.114,0.32,0.069,0.503c-0.046,0.183-0.145,0.32-0.297,0.412l-1.51,0.869l-3.112-5.216l1.51-0.869
        c0.153-0.122,0.32-0.16,0.503-0.114c0.183,0.046,0.32,0.16,0.412,0.343L15.282,17.836z"/>
    </symbol>
    <symbol id="icon-share" viewBox="0 0 48.67 47.85">
        <title>Share</title>
        <path d="M40.33,31.59a8.3,8.3,0,0,0-6,2.6L16.56,25.5a8.41,8.41,0,0,0,.11-1.24,9.71,9.71,0,0,0-.1-1.22l17.71-8.59A8.32,8.32,0,1,0,32,8.74,8,8,0,0,0,32.1,10L14.39,18.54a8.34,8.34,0,1,0,0,11.45L32.1,38.68a8.52,8.52,0,0,0-.1,1.24,8.33,8.33,0,1,0,8.33-8.33Z" transform="translate(0 -0.41)"/>
    </symbol>
    <symbol id="icon-print" viewBox="0 0 510 459">
        <title>Print</title>
        <path d="M433.5,153H76.5C33.15,153,0,186.15,0,229.5v153H102v102H408v-102H510v-153C510,186.15,476.85,153,433.5,153ZM357,433.5H153V306H357ZM433.5,255c-15.3,0-25.5-10.2-25.5-25.5S418.2,204,433.5,204,459,214.2,459,229.5,448.8,255,433.5,255ZM408,25.5H102v102H408Z" transform="translate(0 -25.5)"/>
    </symbol>
    <symbol id="icon-mail" viewBox="0 0 28 28">
        <title>mail</title>
        <path d="M26 23.5v-12c-0.328 0.375-0.688 0.719-1.078 1.031-2.234 1.719-4.484 3.469-6.656 5.281-1.172 0.984-2.625 2.188-4.25 2.188h-0.031c-1.625 0-3.078-1.203-4.25-2.188-2.172-1.813-4.422-3.563-6.656-5.281-0.391-0.313-0.75-0.656-1.078-1.031v12c0 0.266 0.234 0.5 0.5 0.5h23c0.266 0 0.5-0.234 0.5-0.5zM26 7.078c0-0.391 0.094-1.078-0.5-1.078h-23c-0.266 0-0.5 0.234-0.5 0.5 0 1.781 0.891 3.328 2.297 4.438 2.094 1.641 4.188 3.297 6.266 4.953 0.828 0.672 2.328 2.109 3.422 2.109h0.031c1.094 0 2.594-1.437 3.422-2.109 2.078-1.656 4.172-3.313 6.266-4.953 1.016-0.797 2.297-2.531 2.297-3.859zM28 6.5v17c0 1.375-1.125 2.5-2.5 2.5h-23c-1.375 0-2.5-1.125-2.5-2.5v-17c0-1.375 1.125-2.5 2.5-2.5h23c1.375 0 2.5 1.125 2.5 2.5z"></path>
    </symbol>
    <symbol id="icon-list" viewBox="0 0 384.3 275.5">
        <title>List</title>
        <path d="m36.5 25c0 1.9-2.1 3.6-4.6 3.6h-27.3c-2.4 0-4.6-1.7-4.6-3.6v-21.4c0-1.9 2.1-3.6 4.6-3.6h27.4c2.4 0 4.6 1.7 4.6 3.6v21.4zm0 82.3c0 1.9-2.1 3.6-4.6 3.6h-27.3c-2.4 0-4.6-1.7-4.6-3.6v-21.4c0-1.9 2.1-3.6 4.6-3.6h27.4c2.4 0 4.6 1.7 4.6 3.6v21.4zm0 82.3c0 1.9-2.1 3.6-4.6 3.6h-27.3c-2.4 0-4.6-1.7-4.6-3.6v-21.4c0-1.9 2.1-3.6 4.6-3.6h27.4c2.4 0 4.6 1.7 4.6 3.6v21.4zm0 82.3c0 1.9-2.1 3.6-4.6 3.6h-27.3c-2.4 0-4.6-1.7-4.6-3.6v-21.4c0-1.9 2.1-3.6 4.6-3.6h27.4c2.4 0 4.6 1.7 4.6 3.6v21.4zm347.8-246.9c0 1.9-3.5 3.6-7.6 3.6h-286.6c-4 0-7.6-1.7-7.6-3.6v-21.4c0-1.9 3.5-3.6 7.6-3.6h286.6c4 0 7.6 1.7 7.6 3.6zm0 82.3c0 1.9-3.5 3.6-7.6 3.6h-286.6c-4 0-7.6-1.7-7.6-3.6v-21.4c0-1.9 3.5-3.6 7.6-3.6h286.6c4 0 7.6 1.7 7.6 3.6zm0 82.3c0 1.9-3.5 3.6-7.6 3.6h-286.6c-4 0-7.6-1.7-7.6-3.6v-21.4c0-1.9 3.5-3.6 7.6-3.6h286.6c4 0 7.6 1.7 7.6 3.6zm0 82.3c0 1.9-3.5 3.6-7.6 3.6h-286.6c-4 0-7.6-1.7-7.6-3.6v-21.4c0-1.9 3.5-3.6 7.6-3.6h286.6c4 0 7.6 1.7 7.6 3.6z"></path>
    </symbol>
    <symbol id="icon-location" viewBox="0 0 400 400">
        <title>Location</title>
        <path d="M200,2.9c-84.8,0-154,68.7-154,154s117.8,239.3,154,239.3c42,0,154-154,154-239.3S284.8,2.9,200,2.9z M200,261.8
        c-61.6,0-112-48.2-112-108S138,45.3,200,45.3c61.6,0,111.6,48.7,111.6,108.5C311.6,213.2,261.6,261.8,200,261.8z"/>
    </symbol>
</svg>
